<svg xmlns="http://www.w3.org/2000/svg" width="201" height="44" viewBox="0 0 201 44">
    <g fill="none" fill-rule="evenodd">
        <g fill-rule="nonzero">
            <path fill="#0E224F" d="M5.5 6.435c.938 0 1.7-.3 2.287-.903s.88-1.374.88-2.314-.293-1.712-.88-2.314C7.2.3 6.437 0 5.5 0 4.59 0 3.835.301 3.234.904c-.602.602-.902 1.373-.902 2.314 0 .94.3 1.711.902 2.314.6.602 1.356.903 2.265.903zm5.41 22.876c.06-.117.089-.25.089-.396v-.441c0-.323-.162-.514-.484-.573-.88-.176-1.51-.367-1.892-.573-.381-.206-.572-.53-.572-.97V13.796c0-.94.044-1.675.132-2.204.088-.529.132-.955.132-1.278 0-.44-.235-.661-.704-.661-.235 0-.69.073-1.364.22-.674.147-1.378.265-2.111.353-.323.03-.675.059-1.056.088-.382.03-.763.051-1.144.066l-1.078.044c-.337.015-.594.022-.77.022-.059.118-.088.243-.088.375v.33c0 .412.19.647.572.706 1.085.088 1.774.367 2.068.837.293.47.44 1.146.44 2.028v11.636c0 .44-.176.764-.528.97-.352.206-.998.397-1.936.573-.117.03-.227.08-.33.154-.103.074-.154.213-.154.419 0 .264.03.543.088.837.763-.058 1.554-.11 2.376-.154.82-.044 1.803-.066 2.947-.066 1.144 0 2.141.022 2.992.066.85.044 1.642.096 2.376.154zm25.738 0c.029-.117.05-.242.066-.374.014-.133.022-.287.022-.463 0-.206-.052-.345-.154-.419-.103-.073-.213-.125-.33-.154-.939-.147-1.584-.33-1.936-.551-.352-.22-.528-.536-.528-.948V15.647c0-1.998-.513-3.496-1.54-4.495-1.026-1-2.434-1.5-4.223-1.5-1.232 0-2.42.383-3.564 1.147-1.144.764-2.185 1.763-3.124 2.997 0-.94.044-1.675.132-2.204.088-.529.132-.955.132-1.278 0-.44-.234-.661-.704-.661-.234 0-.689.073-1.363.22-.675.147-1.379.265-2.112.353-.323.03-.675.059-1.056.088-.381.03-.763.051-1.144.066l-1.078.044c-.337.015-.594.022-.77.022-.058.118-.088.243-.088.375v.33c0 .383.191.618.572.706 1.027.088 1.701.367 2.024.837.323.47.484 1.146.484 2.028v11.636c0 .44-.176.764-.528.97-.352.206-.997.397-1.936.573-.117.03-.227.08-.33.154-.102.074-.154.213-.154.419 0 .176.008.33.022.463.015.132.037.257.066.374.734-.058 1.489-.11 2.266-.154.777-.044 1.738-.066 2.882-.066.938 0 1.818.022 2.64.066.82.044 1.613.096 2.375.154.059-.147.088-.426.088-.837 0-.323-.161-.514-.484-.573-.762-.147-1.276-.323-1.54-.53-.264-.205-.396-.528-.396-.969v-7.89c0-1.763.47-3.092 1.408-3.989.939-.896 2.068-1.344 3.388-1.344.938 0 1.62.33 2.046.992.425.661.638 1.858.638 3.592v8.64c0 .44-.132.763-.396.969-.264.206-.778.382-1.54.529-.323.059-.484.25-.484.573 0 .411.03.69.088.837.762-.058 1.554-.11 2.376-.154.82-.044 1.7-.066 2.64-.066 1.143 0 2.096.022 2.859.066.762.044 1.525.096 2.288.154zm10.272.309c.162 0 .316-.03.462-.088l6.468-15.78c.176-.44.337-.786.483-1.036.147-.25.316-.455.506-.617.191-.161.411-.279.66-.352.25-.074.58-.155.99-.243.382-.088.572-.294.572-.617 0-.059-.007-.176-.022-.353-.015-.176-.051-.337-.11-.484-1.026.088-2.156.132-3.387.132-1.379 0-2.655-.044-3.828-.132-.03.147-.059.286-.088.418-.03.133-.044.243-.044.33 0 .236.044.39.132.464.088.073.235.14.44.198.939.235 1.408.647 1.408 1.234 0 .294-.052.654-.154 1.08-.103.426-.279 1.007-.528 1.741-.25.735-.601 1.675-1.056 2.821-.455 1.146-1.034 2.586-1.738 4.32l-2.815-6.92c-.499-1.146-.807-1.947-.924-2.403-.118-.455-.176-.756-.176-.903 0-.235.08-.434.242-.595.161-.162.594-.287 1.298-.375.38-.059.571-.28.571-.661 0-.176-.044-.426-.132-.75-.791.06-1.583.096-2.375.11-.792.015-1.716.023-2.772.023h-.17c-1.066 0-1.933-.008-2.602-.022-.704-.015-1.422-.052-2.155-.11-.088.323-.132.587-.132.793 0 .44.19.676.572.705.38.059.689.125.924.199.234.073.44.183.615.33.176.147.338.353.484.617.147.265.323.617.528 1.058l6.028 14.017c.322.764.579 1.263.77 1.498.19.235.388.353.593.353h.462zm19.644 0c2.024 0 3.776-.316 5.257-.948 1.482-.632 2.794-1.623 3.938-2.975-.205-.382-.403-.64-.594-.771-.19-.133-.36-.199-.506-.199-.205 0-.44.103-.704.309-.674.588-1.452 1.028-2.332 1.322-.88.294-1.774.44-2.683.44-2.053 0-3.593-.609-4.62-1.828-1.026-1.22-1.54-2.976-1.54-5.268l12.627-.528c.205 0 .308-.103.308-.309 0-2.85-.726-5.098-2.178-6.744-1.452-1.645-3.6-2.468-6.445-2.468-1.056 0-2.156.242-3.3.727-1.144.485-2.2 1.183-3.167 2.094-.968.91-1.767 2.02-2.398 3.328-.63 1.307-.946 2.77-.946 4.385 0 1.646.271 3.056.814 4.232.543 1.175 1.254 2.152 2.134 2.93.88.78 1.87 1.353 2.97 1.72s2.221.55 3.365.55zm-3.916-11.901c0-2.116.345-3.666 1.034-4.65.69-.985 1.606-1.477 2.75-1.477.645 0 1.203.17 1.672.507.47.338.858.764 1.166 1.278.308.515.535 1.08.682 1.697.146.617.22 1.205.22 1.763 0 .353-.22.544-.66.573l-6.864.309zm22.922 11.9c1.32 0 2.449-.16 3.387-.484.939-.323 1.716-.771 2.332-1.344.616-.573 1.063-1.242 1.342-2.006.279-.764.418-1.572.418-2.424 0-.911-.14-1.697-.418-2.358-.279-.661-.682-1.227-1.21-1.697-.528-.47-1.173-.874-1.936-1.212-.762-.338-1.642-.654-2.64-.948-.85-.264-1.525-.507-2.023-.727-.499-.22-.887-.448-1.166-.683-.279-.236-.462-.485-.55-.75-.088-.264-.132-.558-.132-.881 0-.676.264-1.264.792-1.763.528-.5 1.29-.75 2.288-.75 1.114 0 2.038.28 2.771.838.734.558 1.203 1.44 1.408 2.644.059.294.293.456.704.485l1.1.044c0-.294-.007-.654-.022-1.08-.015-.426-.037-.866-.066-1.322-.03-.455-.059-.881-.088-1.278-.03-.397-.059-.713-.088-.948-.645-.323-1.503-.624-2.574-.903-1.07-.28-2.177-.42-3.321-.42-1.995 0-3.615.56-4.862 1.676-1.246 1.116-1.87 2.6-1.87 4.452 0 1.41.433 2.622 1.298 3.636.866 1.014 2.369 1.83 4.51 2.446 1.584.47 2.661.955 3.233 1.455.572.5.858 1.102.858 1.807 0 .764-.322 1.381-.968 1.851-.645.47-1.48.705-2.507.705-1.496 0-2.67-.33-3.52-.991-.85-.661-1.334-1.61-1.452-2.843-.029-.235-.161-.404-.396-.507-.234-.103-.513-.154-.836-.154h-.571c0 .852.022 1.711.066 2.578.044.867.095 1.682.154 2.446.997.53 2.104.897 3.321 1.102 1.217.206 2.295.309 3.234.309zm17.378 0c1.026 0 2.001-.175 2.925-.528.924-.353 2.002-1.087 3.234-2.204-.323-.617-.63-.926-.924-.926-.205 0-.455.089-.748.265-.44.294-.88.521-1.32.683-.44.162-.821.243-1.144.243-.293 0-.55-.037-.77-.11-.22-.074-.395-.243-.527-.508-.132-.264-.228-.653-.286-1.168-.06-.514-.088-1.212-.088-2.093V12.386h4.223c.352 0 .594-.133.726-.397s.198-.867.198-1.807H103.3V5.598h-.924c-.382 0-.77.205-1.166.617-.396.411-.755.955-1.078 1.63-.41.912-.953 1.595-1.628 2.05-.674.456-1.408.684-2.2.684-.293 0-.469.088-.527.264-.06.176-.088.323-.088.44v1.103h2.64v12.12c0 1.03.131 1.874.395 2.535s.616 1.183 1.056 1.565c.44.382.931.647 1.474.793.542.147 1.107.22 1.694.22z" transform="translate(57.523 .529)"/>
            <path fill="#00C2A8" d="M121.47 29.311c.058-.117.087-.25.087-.396v-.441c0-.323-.16-.514-.484-.573-.88-.176-1.51-.367-1.891-.573-.382-.206-.572-.53-.572-.97V13.796c0-.94.044-1.675.132-2.204.088-.529.132-.955.132-1.278 0-.44-.235-.661-.704-.661-.235 0-.69.073-1.364.22-.675.147-1.379.265-2.112.353-.322.03-.674.059-1.056.088-.38.03-.762.051-1.143.066l-1.078.044c-.338.015-.594.022-.77.022-.059.118-.088.243-.088.375v.33c0 .412.19.647.572.706 1.085.088 1.774.367 2.067.837.294.47.44 1.146.44 2.028v11.636c0 .44-.176.764-.528.97-.352.206-.997.397-1.935.573-.118.03-.228.08-.33.154-.103.074-.154.213-.154.419 0 .264.029.543.088.837.762-.058 1.554-.11 2.375-.154.822-.044 1.804-.066 2.948-.066s2.141.022 2.992.066c.85.044 1.642.096 2.375.154zm6.467 7.758c2.58-.97 4.788-2.182 6.62-3.636 1.834-1.455 3.337-3.027 4.51-4.717 1.174-1.69 2.024-3.438 2.552-5.245s.792-3.563.792-5.267c0-1.205-.14-2.41-.418-3.614-.279-1.205-.77-2.285-1.474-3.24-.704-.955-1.664-1.734-2.882-2.336-1.217-.603-2.779-.904-4.685-.904-1.496 0-2.823.265-3.981.794-1.159.529-2.134 1.219-2.926 2.071-.792.852-1.4 1.822-1.826 2.91-.425 1.087-.638 2.203-.638 3.35 0 1.468.19 2.71.572 3.724.381 1.013.91 1.85 1.584 2.512.674.661 1.466 1.139 2.376 1.433.909.293 1.891.44 2.947.44 1.907 0 3.505-.543 4.796-1.63-.323 1.292-.675 2.438-1.056 3.438-.381.999-.873 1.924-1.474 2.776-.601.853-1.335 1.697-2.2 2.535-.865.837-1.958 1.756-3.277 2.755-.264.235-.396.455-.396.66 0 .324.161.72.484 1.19zm4.883-14.457c-1.144 0-2.016-.449-2.618-1.345-.6-.896-.902-2.431-.902-4.606 0-2.38.323-4.055.968-5.025.646-.97 1.54-1.454 2.684-1.454 2.258 0 3.388 2.35 3.388 7.052 0 .705-.037 1.389-.11 2.05-.074.66-.228 1.234-.462 1.719-.235.485-.587.874-1.056 1.168-.47.294-1.1.44-1.892.44z" transform="translate(57.523 .529)"/>
        </g>
        <path fill="#00C2A8" d="M5 0h38.394c2.762 0 5 2.239 5 5v31.961c0 2.762-2.238 5-5 5H5c-2.761 0-5-2.238-5-5V5c0-2.761 2.239-5 5-5zm3.095 28.564l5.55-9.316 3.108 6.26-1.88 3.056H8.094zm6.003-9.316h6.855l7.039 13.81h-7.039l-6.855-13.81zm10.751 6.72l3.595 7.09 9.03-16.5c.393 1.748.84 2.74 1.342 2.974.29.135.321.149.44.174.048.01.258.064.31.065.146.003.305-.014.576-.065.394-.074.759-.219 1.093-.434.114-.091.193-.165.236-.222.124-.16.203-.37.294-.72.138-.535-.197-1.825-1.004-3.87l-1.89-5.496c-.106-.29-.267-.513-.483-.669-.217-.155-.468-.213-.755-.172-.196.006-.512.063-.947.172-.436.11-.869.24-1.3.39-4.183 1.45-6.438 2.238-6.764 2.365-.49.192-.79.425-.92.639-.129.213-.181.36-.181.719 0 .24.042.5.125.781l.226.536c.113.24.275.413.486.522.211.108.455.18.73.213.242.036.482.036.72 0 .356-.053.394-.072.736-.172.342-.1.403-.125.66-.191.173-.044.391-.108.657-.194L24.85 25.97zm-7.704-7.611c2 0 3.622-1.596 3.622-3.564 0-1.969-1.622-3.564-3.622-3.564-2 0-3.622 1.595-3.622 3.564 0 1.968 1.622 3.564 3.622 3.564z"/>
        <path fill="#7D87A0" fill-rule="nonzero" d="M59.84 41l.879-2.27h2.861L64.47 41h.86l-2.808-7.168h-.699L59 41h.84zm3.481-3.018h-2.31l.84-2.211c.134-.375.237-.718.308-1.03.114.406.225.75.332 1.03l.83 2.211zm6.665 3.116c.397 0 .729-.06.994-.179.265-.118.531-.345.798-.68h.04l.16.761h.601v-3.652c0-.625-.154-1.08-.461-1.363-.308-.283-.78-.424-1.419-.424-.316 0-.63.04-.945.122-.314.081-.603.193-.866.337l.249.62c.563-.274 1.067-.41 1.513-.41.398 0 .686.1.867.3.18.2.271.51.271.93v.332l-.908.03c-1.729.051-2.593.618-2.593 1.699 0 .504.15.893.452 1.166.3.274.717.41 1.247.41zm.161-.67c-.319 0-.567-.076-.744-.229-.178-.153-.266-.376-.266-.669 0-.374.142-.65.427-.827.285-.178.75-.278 1.394-.3l.81-.035v.484c0 .498-.143.885-.432 1.162-.288.276-.684.415-1.189.415zm7.413 2.974V41.2c0-.28-.02-.576-.059-.888h.059c.195.266.437.464.725.593.288.128.606.193.954.193.697 0 1.241-.244 1.634-.73.392-.487.588-1.17.588-2.049 0-.875-.193-1.556-.579-2.04-.385-.486-.933-.728-1.643-.728-.358 0-.675.065-.952.195-.277.13-.52.342-.727.635h-.04l-.112-.733h-.659v7.754h.81zm1.582-2.983c-.554 0-.956-.162-1.206-.486-.251-.324-.376-.862-.376-1.614v-.18c.006-.661.131-1.143.376-1.446.244-.302.64-.454 1.186-.454.475 0 .844.178 1.106.535.262.356.393.868.393 1.536 0 .657-.13 1.173-.393 1.547-.262.375-.624.562-1.086.562zm7.036.581v-2.002l.61-.527L88.678 41h.981l-2.32-3.071 2.169-2.28h-.962l-1.729 1.83c-.286.323-.5.583-.64.782h-.038c.026-.375.039-.651.039-.83v-4.029h-.801V41h.8zm7.358-6.26c.13 0 .243-.045.337-.134.094-.09.142-.225.142-.408 0-.182-.048-.317-.142-.405-.094-.088-.207-.132-.337-.132-.137 0-.25.043-.342.13-.09.086-.136.222-.136.407 0 .183.045.318.136.408.091.09.205.134.342.134zm.4 6.26v-5.352h-.81V41h.81zm9.297 0l.88-2.27h2.86l.89 2.27h.859l-2.808-7.168h-.698L102.394 41h.84zm3.482-3.018h-2.31l.84-2.211c.134-.375.236-.718.308-1.03.114.406.224.75.332 1.03l.83 2.211zm6.177 5.42V41.2c0-.28-.02-.576-.059-.888h.059c.195.266.437.464.725.593.288.128.606.193.954.193.697 0 1.241-.244 1.634-.73.392-.487.588-1.17.588-2.049 0-.875-.193-1.556-.579-2.04-.385-.486-.933-.728-1.643-.728-.358 0-.675.065-.952.195-.277.13-.52.342-.727.635h-.04l-.112-.733h-.659v7.754h.81zm1.582-2.983c-.554 0-.956-.162-1.206-.486-.251-.324-.376-.862-.376-1.614v-.18c.006-.661.131-1.143.376-1.446.244-.302.64-.454 1.186-.454.475 0 .844.178 1.106.535.262.356.393.868.393 1.536 0 .657-.13 1.173-.393 1.547-.262.375-.624.562-1.086.562zm7.046.581v-2.808c0-.696.13-1.196.39-1.499.26-.302.67-.454 1.23-.454.424 0 .735.108.933.323.199.214.298.54.298.976V41h.81v-3.491c0-.684-.162-1.181-.488-1.492-.325-.31-.81-.466-1.455-.466-.368 0-.701.072-1 .217-.3.145-.533.35-.699.613h-.039l-.132-.733h-.659V41h.81zm8.237-6.26c.13 0 .242-.045.337-.134.094-.09.141-.225.141-.408 0-.182-.047-.317-.141-.405-.095-.088-.207-.132-.337-.132-.137 0-.25.043-.342.13-.091.086-.137.222-.137.407 0 .183.046.318.137.408.091.09.205.134.342.134zm.4 6.26v-5.352h-.81V41h.81zm12.495.098c.515 0 .967-.031 1.358-.093.39-.062.775-.153 1.152-.274V37.26h-2.427v.742h1.597v2.197c-.472.114-.955.171-1.45.171-.912 0-1.603-.249-2.073-.747s-.705-1.229-.705-2.192c0-.918.244-1.636.732-2.154.488-.517 1.167-.776 2.036-.776.596 0 1.216.137 1.86.41l.323-.732c-.658-.28-1.368-.42-2.13-.42-.751 0-1.407.147-1.967.442-.56.294-.989.72-1.287 1.279-.297.558-.446 1.208-.446 1.95 0 1.16.3 2.06.903 2.703.602.643 1.444.965 2.524.965zm8.492 0c.377 0 .713-.07 1.008-.21.294-.14.525-.342.69-.606h.045l.117.718h.669v-5.352h-.81v2.813c0 .693-.13 1.193-.389 1.499-.259.306-.668.459-1.228.459-.423 0-.734-.107-.933-.322-.198-.215-.297-.54-.297-.977v-3.472h-.82v3.501c0 .68.161 1.176.485 1.485.324.309.812.464 1.463.464zm7.558-.098v-7.598h-.81V41h.81zm5.03 0v-7.598h-.811V41h.81zm5.517.098c.397 0 .728-.06.994-.179.265-.118.531-.345.798-.68h.04l.16.761h.6v-3.652c0-.625-.153-1.08-.46-1.363-.308-.283-.781-.424-1.42-.424-.315 0-.63.04-.944.122-.314.081-.603.193-.867.337l.25.62c.563-.274 1.067-.41 1.513-.41.397 0 .686.1.867.3.18.2.27.51.27.93v.332l-.907.03c-1.729.051-2.593.618-2.593 1.699 0 .504.15.893.451 1.166.302.274.717.41 1.248.41zm.161-.67c-.319 0-.567-.076-.744-.229-.178-.153-.267-.376-.267-.669 0-.374.143-.65.428-.827.284-.178.75-.278 1.394-.3l.81-.035v.484c0 .498-.144.885-.432 1.162-.288.276-.684.415-1.189.415zm7.403.572v-2.002l.61-.527 1.89 2.529h.98l-2.318-3.071 2.168-2.28h-.962l-1.729 1.83c-.286.323-.5.583-.64.782h-.039c.026-.375.04-.651.04-.83v-4.029h-.801V41h.8z"/>
    </g>
</svg>
